<svg width="132" height="33" viewBox="0 0 132 33" fill="none" xmlns="http://www.w3.org/2000/svg">
<path d="M20.2313 16C20.2313 14.6267 20.5379 13.4 21.1513 12.32C21.7779 11.2267 22.6246 10.38 23.6913 9.78C24.7713 9.16667 25.9779 8.86 27.3113 8.86C28.8713 8.86 30.2379 9.26 31.4113 10.06C32.5846 10.86 33.4046 11.9667 33.8713 13.38H30.6513C30.3313 12.7133 29.8779 12.2133 29.2913 11.88C28.7179 11.5467 28.0513 11.38 27.2913 11.38C26.4779 11.38 25.7513 11.5733 25.1113 11.96C24.4846 12.3333 23.9913 12.8667 23.6313 13.56C23.2846 14.2533 23.1113 15.0667 23.1113 16C23.1113 16.92 23.2846 17.7333 23.6313 18.44C23.9913 19.1333 24.4846 19.6733 25.1113 20.06C25.7513 20.4333 26.4779 20.62 27.2913 20.62C28.0513 20.62 28.7179 20.4533 29.2913 20.12C29.8779 19.7733 30.3313 19.2667 30.6513 18.6H33.8713C33.4046 20.0267 32.5846 21.14 31.4113 21.94C30.2513 22.7267 28.8846 23.12 27.3113 23.12C25.9779 23.12 24.7713 22.82 23.6913 22.22C22.6246 21.6067 21.7779 20.76 21.1513 19.68C20.5379 18.6 20.2313 17.3733 20.2313 16ZM54.5941 8.2V23H51.7941V8.2H54.5941ZM62.1605 8.2V23H59.3605V8.2H62.1605ZM68.1669 23.14C67.6602 23.14 67.2402 22.9867 66.9069 22.68C66.5869 22.36 66.4269 21.9667 66.4269 21.5C66.4269 21.0333 66.5869 20.6467 66.9069 20.34C67.2402 20.02 67.6602 19.86 68.1669 19.86C68.6602 19.86 69.0669 20.02 69.3869 20.34C69.7069 20.6467 69.8669 21.0333 69.8669 21.5C69.8669 21.9667 69.7069 22.36 69.3869 22.68C69.0669 22.9867 68.6602 23.14 68.1669 23.14ZM86.0622 23H83.2622L76.9222 13.42V23H74.1222V9.02H76.9222L83.2622 18.62V9.02H86.0622V23ZM95.6492 23.14C94.6759 23.14 93.7959 22.9733 93.0092 22.64C92.2359 22.3067 91.6226 21.8267 91.1692 21.2C90.7159 20.5733 90.4826 19.8333 90.4692 18.98H93.4692C93.5092 19.5533 93.7092 20.0067 94.0692 20.34C94.4426 20.6733 94.9492 20.84 95.5892 20.84C96.2426 20.84 96.7559 20.6867 97.1292 20.38C97.5026 20.06 97.6892 19.6467 97.6892 19.14C97.6892 18.7267 97.5626 18.3867 97.3092 18.12C97.0559 17.8533 96.7359 17.6467 96.3492 17.5C95.9759 17.34 95.4559 17.1667 94.7892 16.98C93.8826 16.7133 93.1426 16.4533 92.5692 16.2C92.0092 15.9333 91.5226 15.54 91.1092 15.02C90.7092 14.4867 90.5092 13.78 90.5092 12.9C90.5092 12.0733 90.7159 11.3533 91.1292 10.74C91.5426 10.1267 92.1226 9.66 92.8692 9.34C93.6159 9.00667 94.4692 8.84 95.4292 8.84C96.8692 8.84 98.0359 9.19333 98.9292 9.9C99.8359 10.5933 100.336 11.5667 100.429 12.82H97.3492C97.3226 12.34 97.1159 11.9467 96.7292 11.64C96.3559 11.32 95.8559 11.16 95.2292 11.16C94.6826 11.16 94.2426 11.3 93.9092 11.58C93.5892 11.86 93.4292 12.2667 93.4292 12.8C93.4292 13.1733 93.5492 13.4867 93.7892 13.74C94.0426 13.98 94.3492 14.18 94.7092 14.34C95.0826 14.4867 95.6026 14.66 96.2692 14.86C97.1759 15.1267 97.9159 15.3933 98.4892 15.66C99.0626 15.9267 99.5559 16.3267 99.9692 16.86C100.383 17.3933 100.589 18.0933 100.589 18.96C100.589 19.7067 100.396 20.4 100.009 21.04C99.6226 21.68 99.0559 22.1933 98.3092 22.58C97.5626 22.9533 96.6759 23.14 95.6492 23.14ZM107.777 9.04V17.68C107.777 18.6267 108.023 19.3533 108.517 19.86C109.01 20.3533 109.703 20.6 110.597 20.6C111.503 20.6 112.203 20.3533 112.697 19.86C113.19 19.3533 113.437 18.6267 113.437 17.68V9.04H116.257V17.66C116.257 18.8467 115.997 19.8533 115.477 20.68C114.97 21.4933 114.283 22.1067 113.417 22.52C112.563 22.9333 111.61 23.14 110.557 23.14C109.517 23.14 108.57 22.9333 107.717 22.52C106.877 22.1067 106.21 21.4933 105.717 20.68C105.223 19.8533 104.977 18.8467 104.977 17.66V9.04H107.777ZM130.462 9.04V11.3H126.742V23H123.942V11.3H120.222V9.04H130.462Z" fill="white"/>
<path d="M16.7976 15.5814C16.9437 15.9537 17.0504 16.2986 17.1176 16.616L9.57735 19.5747C9.93162 20.295 10.4212 20.7761 11.046 21.0179C11.6708 21.2598 12.3184 21.2492 12.9886 20.9862C13.9568 20.6063 14.4825 19.9202 14.5658 18.9279L17.3771 17.8247C17.4688 18.9346 17.2193 19.9778 16.6286 20.9544C16.0329 21.9186 15.1207 22.6418 13.8919 23.1239C12.899 23.5136 11.9201 23.647 10.9552 23.5243C9.99795 23.3843 9.1376 22.9986 8.3742 22.3671C7.62321 21.7308 7.04073 20.8851 6.62676 19.8301C6.20791 18.7627 6.05742 17.7403 6.17527 16.7631C6.29312 15.7858 6.6578 14.9266 7.26929 14.1853C7.88079 13.4441 8.69543 12.8738 9.71322 12.4744C10.6938 12.0897 11.6516 11.9573 12.5867 12.0774C13.5343 12.1926 14.3725 12.5583 15.1013 13.1747C15.8377 13.7738 16.4031 14.576 16.7976 15.5814ZM13.8058 15.8959C13.5304 15.2306 13.0789 14.7918 12.4514 14.5797C11.819 14.3552 11.1615 14.3769 10.4789 14.6447C9.83345 14.898 9.36524 15.3109 9.07426 15.8834C8.79082 16.4386 8.73581 17.0832 8.90925 17.8173L13.8058 15.8959Z" fill="white"/>
<path d="M47.7976 15.5814C47.9437 15.9537 48.0504 16.2986 48.1176 16.616L40.5773 19.5747C40.9316 20.295 41.4212 20.7761 42.046 21.0179C42.6708 21.2598 43.3184 21.2492 43.9886 20.9862C44.9568 20.6063 45.4825 19.9202 45.5658 18.9279L48.3771 17.8247C48.4688 18.9346 48.2193 19.9778 47.6286 20.9544C47.0329 21.9186 46.1207 22.6418 44.8919 23.1239C43.899 23.5136 42.9201 23.647 41.9552 23.5243C40.9979 23.3843 40.1376 22.9986 39.3742 22.3671C38.6232 21.7308 38.0407 20.8851 37.6268 19.8301C37.2079 18.7627 37.0574 17.7403 37.1753 16.7631C37.2931 15.7858 37.6578 14.9266 38.2693 14.1853C38.8808 13.4441 39.6954 12.8738 40.7132 12.4744C41.6938 12.0897 42.6516 11.9573 43.5867 12.0774C44.5343 12.1926 45.3725 12.5583 46.1013 13.1747C46.8377 13.7738 47.4031 14.576 47.7976 15.5814ZM44.8058 15.8959C44.5304 15.2306 44.0789 14.7918 43.4514 14.5797C42.819 14.3552 42.1615 14.3769 41.4789 14.6447C40.8334 14.898 40.3652 15.3109 40.0743 15.8834C39.7908 16.4386 39.7358 17.0832 39.9093 17.8173L44.8058 15.8959Z" fill="white"/>
</svg>
