<svg width="46" height="51" viewBox="0 0 46 51" fill="none" xmlns="http://www.w3.org/2000/svg">
<path d="M21 0H24.2941L26.4559 0.289454L28 0.578908L29.9559 1.06133L32.0147 1.83321L33.6618 2.60509L35.4118 3.56993L36.75 4.53478L38.1912 5.6926L39.9412 7.33284L41.0735 8.68362L42 9.93793L42.9265 11.4817L43.9559 13.5079L44.7794 15.8235L45.2941 18.1391L45.5 19.8759V23.0598L45.1912 25.3755L44.3676 28.27L43.5441 30.1997L42.3088 32.4189L40.9706 34.2521L39.7353 35.6993L37.7794 39.3658L36.8529 41.006L34.3824 45.6373L33.8676 45.5408L32.2206 44.5759L30.7794 43.7076L30.3676 43.6111L22.8529 50.6545L22.4412 50.4615L20.7941 48.9178L20.5882 48.8213V48.6283H20.3824V48.4353H20.1765V48.2424L19.7647 48.0494L15.8529 44.383L15.75 44.19L15.3382 44.2865L13.7941 45.5408L13.0735 46.0232L12.6618 45.8302L11.4265 43.9005L10.1912 42.0673L8.85294 40.0412L7.61765 38.2079L6.79412 36.8572L5.55882 35.5064L4.73529 34.638L3.5 32.9978L2.26471 30.9716L1.44118 29.2349L0.617647 26.9192L0.205882 25.1825L0 24.1212V18.6215L0.514706 16.2094L1.02941 14.5692L1.85294 12.6395L2.67647 11.0957L3.80882 9.35902L4.83824 8.10472L5.55882 7.33284L6.48529 6.36799L7.61765 5.30666L8.75 4.4383L10.5 3.28048L12.3529 2.31563L14.3088 1.44727L16.3676 0.771878L18.1176 0.385939L19.9706 0.0964847L21 0ZM21.7206 2.70157L19.8676 2.89454L18.0147 3.184L15.9559 3.7629L13.8971 4.53478L12.3529 5.30666L10.8088 6.27151L9.05882 7.62229L7.82353 8.68362L6.69118 10.0344L5.66176 11.3852L4.52941 13.3149L3.70588 15.2446L3.08824 17.2708L2.88235 18.2356L2.67647 19.9723V22.7704L2.98529 25.1825L3.70588 27.5946L4.22059 28.8489L5.04412 30.3927L5.86765 31.647L6.58824 32.6118L8.44118 34.638H8.64706L8.75 34.9275L11.0147 36.6642L12.6618 37.629L14.4118 38.4974L16.5735 39.2693L17.9118 39.5587L18.7353 39.7517L21.2059 40.0412H24.1912L26.8676 39.6552L29.8529 38.7869L31.5 38.1115L33.7647 36.8572L35.1029 35.8923L36.1324 35.024L37.8824 33.3837L39.3235 31.5505L39.9412 30.5857L41.0735 28.3665L42 25.5684L42.3088 23.8317L42.4118 22.8669V19.9723L42.1029 17.9462L41.7941 16.5954L41.2794 15.0516L40.5588 13.4114L39.8382 12.0606L38.9118 10.7098L37.8824 9.4555L36.2353 7.81526L35.1029 6.85041L33.3529 5.6926L31.7059 4.82424L30.2647 4.14884L27.8971 3.37697L26.0441 2.99103L24.7059 2.79806L23.3676 2.70157H21.7206Z" fill="#FEFAF6"/>
<path d="M21.8235 4.24536H23.1617L26.3529 4.6313L28.5147 5.21021L30.6764 6.07857L32.5294 7.04342L34.1764 8.20123L35.5147 9.35905L36.0294 10.0344L36.2352 10.6134V11.7712L35.6176 12.8325L34.7941 13.5079L33.7647 13.8938H32.9411L31.9117 13.5079L30.8823 12.6395L29.8529 11.8677L28.5147 11.0958L26.9705 10.4204L25.6323 10.0344L23.8823 9.74499H21.2058L19.6617 9.93796L18.0147 10.4204L16.6764 10.9993L15.4411 11.6747L14 12.736L12.9705 13.7009L11.9411 15.0516L11.1176 16.4989L10.5 18.0427L10.0882 19.7794V22.9634L10.6029 24.9896L11.2205 26.4368L12.147 27.9806L13.0735 29.0419L13.897 29.9103L15.3382 30.9716L16.5735 31.7435L19.0441 32.7083L20.4853 32.9978L21.6176 33.0943H23.2647L25.1176 32.9013L26.6617 32.5154L28.5147 31.7435L29.9558 30.8751L30.9852 30.0068L31.8088 29.3314L32.9411 28.849H33.7647L34.6911 29.1384L35.6176 29.8138L36.2352 30.9716V32.033L35.5147 33.3837L34.4852 34.3486L32.8382 35.5064L31.2941 36.3748L29.647 37.1466L28 37.7256L25.3235 38.3045L23.4705 38.4974H21.5147L19.8676 38.3045L17.8088 37.9185L15.647 37.2431L13.7941 36.4713L12.25 35.6029L10.5 34.3486L8.64702 32.6119L7.92643 31.7435L6.69113 30.0068L5.55878 27.7876L4.94113 26.0509L4.42643 23.6388L4.32349 23.0599V19.6829L4.73525 17.5603L5.24996 15.8235L6.17643 13.7009L7.1029 12.1571L8.13231 10.8063L9.26466 9.6485L9.77937 9.0696L10.9117 8.20123L11.9411 7.42936L13.7941 6.36802L15.9558 5.40318L17.9117 4.82427L19.9705 4.43833L21.8235 4.24536Z" fill="#FEB65F"/>
<path d="M39.7354 35.4098V35.6992L37.7795 39.3657L36.853 41.0059L34.3824 45.6372L33.8677 45.5407L32.2207 44.5758L30.7795 43.7075L30.3677 43.611L22.853 50.6544L22.4412 50.4614L20.7942 48.9177L20.5883 48.8212V48.6282H20.3824V48.4352H20.1765V48.2423L19.7648 48.0493L15.853 44.3829L15.7501 44.1899L15.3383 44.2864L13.7942 45.5407L13.0736 46.0231L12.6618 45.8301L11.4265 43.9004L10.1912 42.0672L8.85301 40.0411L7.61772 38.2078L6.79419 36.8571V36.5676L7.41184 37.243L8.85301 38.3043L9.67654 38.8832L11.3236 39.8481L14.103 41.1024L16.8824 41.9708L19.353 42.4532L21.0001 42.6461H23.8824L27.0736 42.2602L29.2354 41.7778L31.5001 41.0059L33.2501 40.234L35.3089 39.0762L36.6471 38.2078L38.0883 37.05L39.3236 35.9887L39.7354 35.4098Z" fill="#FEB65F"/>
<path d="M22.3383 15.2446L23.6765 15.3411L25.0147 15.7271L26.353 16.4024L27.5883 17.5603L28.4118 18.911L28.8236 20.2618V21.9021L28.4118 23.2529L27.8971 24.2177L27.0736 25.279L26.0441 26.6298L25.4265 27.4982H20.1765L19.5589 27.3052L18.9412 26.3404L18.0147 25.279L17.1912 24.2177L16.7794 23.4458L16.4706 22.674L16.3677 21.9986V20.4548L16.5736 19.3935L17.3971 17.7532L18.3236 16.7884L19.1471 16.2095L20.5883 15.5341L21.4118 15.3411L22.3383 15.2446Z" fill="#FED07C"/>
<path d="M12.2499 28.27L12.7646 28.7524L13.897 29.9103L15.3381 30.9716L16.5734 31.7435L19.044 32.7083L20.4852 32.9978L21.6175 33.0943H23.2646L25.1175 32.9013L26.6617 32.5153L28.5146 31.7435L29.9558 30.8751L30.9852 30.0067L31.8087 29.3314L32.9411 28.8489H33.7646L34.6911 29.1384L35.6175 29.8138L36.2352 30.9716V32.0329L35.5146 33.3837L34.4852 34.3486L32.8381 35.5064L31.294 36.3747L29.647 37.1466L27.9999 37.7255L25.3234 38.3044L23.4705 38.4974H21.5146L19.8675 38.3044L17.8087 37.9185L15.647 37.2431L13.794 36.4712L12.2499 35.6029L10.4999 34.3486L8.64696 32.6118L8.33813 32.2259L8.44108 32.0329L9.36755 32.9013L9.77931 33.3837L10.6028 34.0591L11.5293 34.831L12.8675 35.6993L14.1028 36.3747L14.9264 36.6642L15.1323 36.2783L15.9558 35.3134L16.9852 34.1556L17.8087 33.1907L18.2205 32.6118L17.4999 32.4189L15.7499 31.5505L14.8234 30.9716V30.7786L14.3087 30.5857L13.2793 29.7173L12.2499 28.463V28.27Z" fill="#FEA248"/>
<path d="M25.9412 4.82422H26.6618L28.6177 5.40313L30.3677 6.07852L31.3971 6.56094L32.1177 6.8504L33.2501 7.52579L34.2795 8.29767L35.5148 9.359L36.0295 10.0344L36.2354 10.6133V11.7711L35.6177 12.8324L34.7942 13.5078L33.7648 13.8938H32.9412L31.9118 13.5078L30.8824 12.6395L29.853 11.8676L28.5148 11.0957L26.9706 10.4203L26.0442 10.1309V9.93791L24.8089 9.74494L22.853 9.55197H22.3383L22.2354 9.16603L22.5442 8.87658L23.4706 7.81524L24.603 6.56094L25.4265 5.5961L25.9412 4.82422Z" fill="#FED17D"/>
<path d="M9.98534 23.8317L10.1912 24.0246V24.3141H10.3971L11.0147 26.0508L11.9412 27.6911L12.25 28.077L12.4559 28.5594L13.3824 29.7172L14 30.1997V30.3926L14.5147 30.5856L14.8236 30.7786V30.9715L15.3383 31.1645L16.4706 31.8399L18.2206 32.6118L18.0147 33.0942L17.1912 33.9626L16.1618 35.2169L15.3383 36.0852L14.9265 36.6641L14.4118 36.5676L13.1765 35.9887L11.8383 35.1204L10.7059 34.252L9.98534 33.5766L9.36769 33.0942L8.6471 32.3223L7.82357 31.6469L7.41181 31.068L7.10298 30.3926L6.17651 28.7524L6.27945 28.1735L7.10298 27.3051L8.02945 26.2438L8.44122 25.7614L9.16181 24.7965H9.36769L9.57357 24.3141L9.98534 23.8317Z" fill="#FED27E"/>
<path d="M39.7355 35.4098V35.6992L37.7796 39.3657L36.8531 41.0059L34.3825 45.6372L33.8678 45.5407L32.2208 44.5758L30.7796 43.7075L30.3678 43.418L29.6472 43.2251L29.1325 43.0321L28.7208 42.6461L28.5149 42.0672L29.2355 41.9708V41.7778L31.5002 41.0059L33.2502 40.234L35.309 39.0762L36.6472 38.2078L38.0884 37.05L39.3237 35.9887L39.7355 35.4098Z" fill="#FEA35D"/>
<path d="M6.69116 36.5676L7.20587 37.0501L8.95587 38.4008L10.2941 39.2692L11.7353 40.0411L14.1029 41.1024L16.8823 41.9708L19.3529 42.4532L21 42.6462H23.8823L27.0735 42.2602L28.8235 41.8743L29.2353 41.9708L27.3823 42.4532L24.7059 42.8391L22.75 42.9356L20.4853 42.8391L17.7059 42.4532L17.6029 42.8391H17.397L17.2941 43.1286L16.4706 43.5145L15.8529 43.997H15.4412L15.2353 44.3829L13.7941 45.5407L13.0735 46.0231L12.6617 45.8302L11.4265 43.9005L10.1912 42.0673L8.85293 40.0411L7.61763 38.2079L6.7941 36.8571L6.69116 36.5676Z" fill="#FED17D"/>
<path d="M22.3381 15.2446L23.6764 15.3411L25.0146 15.7271L26.3529 16.4024L27.5882 17.5603L28.4117 18.911L28.8234 20.2618V21.9021L28.4117 23.2529L27.897 24.2177L27.0734 25.279L26.044 26.6298L25.4264 27.4982H20.1764L19.5587 27.3052L19.3529 26.8228L19.7646 27.2087H22.647L23.6764 26.1474L25.0146 24.5072L25.9411 23.3493L27.0734 22.095L28.4117 20.4548V19.7794L28.1029 18.8146L27.4852 17.8497L26.5587 16.8849L25.5293 16.2095L24.1911 15.7271L23.1617 15.5341H22.2352L21.1029 15.6306L19.8676 16.113H19.6617V16.306H19.147L19.6617 15.92L20.897 15.4376L22.3381 15.2446Z" fill="#FEA248"/>
<path d="M22.3384 19.3934L23.3678 19.4899L24.1913 20.0688L24.6031 20.6477L24.809 21.4196V21.902L24.706 21.9985H21.5148L21.8237 22.5774L21.9266 22.6739H23.1619L23.7795 22.4809L24.5001 22.9634L24.0884 23.4458L23.2648 23.8317L22.5442 23.9282L21.6178 23.7352L20.6913 23.0599L20.2795 22.3845V21.0337L20.6913 20.2618L21.206 19.7794L21.8237 19.4899L22.3384 19.3934Z" fill="#14094A"/>
<path d="M19.9707 29.7173H24.9119L25.3236 29.8138L25.0148 30.7786L24.3972 31.1646L23.9854 31.3575L23.7795 32.0329L23.3678 32.1294H21.8236L21.4119 31.9364L21.206 31.3575L20.2795 30.7786L19.9707 30.2962V29.7173Z" fill="#FEA249"/>
<path d="M21.3087 16.6919H22.0293L22.2352 16.9813V17.6567L21.7205 17.8497L20.3823 18.2356L19.5587 18.8146L18.9411 19.5864L18.6323 20.7443L18.5293 21.5161L18.4264 21.6126H17.7058L17.397 21.3232V20.3583L17.8087 19.104L18.3234 18.2356L18.8381 17.7532L19.7646 17.1743L20.794 16.7884L21.3087 16.6919Z" fill="#14094B"/>
<path d="M20.2793 27.9806H24.4999L25.3234 28.0771L25.5293 28.27V29.0419L25.3234 29.3314H20.0734L19.7646 29.1384L19.6616 28.5595L19.9704 28.0771L20.2793 27.9806Z" fill="#FEA248"/>
<path d="M22.1325 10.8063H22.853L23.3677 11.0957L23.5736 11.7711V13.7008L23.2648 14.2797L22.6472 14.5692L21.9266 14.3762L21.5148 13.7973L21.4119 12.9289V11.7711L21.8236 10.9992L22.1325 10.8063Z" fill="#FED27E"/>
<path d="M12.6618 17.0779L13.3823 17.1744L15.5441 18.0427L15.75 18.2357V19.0076L15.5441 19.3935L15.1323 19.683L14.2059 19.5865L12.6618 19.0076L12.147 18.7181L11.9412 18.4287V17.7533L12.4559 17.1744L12.6618 17.0779Z" fill="#FEB45D"/>
<path d="M16.3676 12.3501H17.0881L17.9117 13.2185L18.7352 14.4728V15.1482L18.5293 15.5341L18.0146 15.8235L17.294 15.7271L16.6764 15.0517L15.7499 13.6044L15.647 13.0255L16.1617 12.4466L16.3676 12.3501Z" fill="#FEB45C"/>
<path d="M17.1912 26.2439H17.9118L18.5295 26.7263L18.6324 27.4017L18.2206 27.9806L17.0883 29.1384L16.4706 29.5244L15.853 29.4279L15.3383 28.9455L15.2354 28.3666L15.853 27.5947L17.1912 26.2439Z" fill="#FECD78"/>
<path d="M14.5147 22.3844L15.2353 22.4809L15.75 22.9633L15.8529 23.4457L15.5441 24.0246L15.0294 24.3141L13.3823 24.7965H12.4559L11.9412 24.3141V23.4457L12.4559 23.0598L14.5147 22.3844Z" fill="#FECC77"/>
<path d="M28.103 12.5431H28.8236L29.3383 12.929L29.4413 13.122L29.3383 13.9904L28.3089 15.4376L27.8971 15.8236L27.6913 15.9201L26.7648 15.8236V15.6306H26.5589L26.353 15.2447L26.456 14.6658L27.2795 13.4115L27.8971 12.6396L28.103 12.5431Z" fill="#FECB77"/>
<path d="M27.3824 26.4369L28 26.5334L28.6177 27.0158L29.3382 27.7877L29.853 28.4631V29.042L29.6471 29.4279L29.1324 29.7174L28.4118 29.6209L27.7941 29.1385V28.9455H27.5882L26.6618 27.8842L26.5588 27.2088L26.9706 26.6299L27.3824 26.4369Z" fill="#FEA248"/>
<path d="M32.0147 17.2708L32.6323 17.3672L33.147 17.9461L33.25 18.4286L32.9412 18.911L31.9118 19.3934L30.7794 19.7794H29.9559L29.647 19.4899L29.4412 19.2004V18.5251L29.9559 18.0426L32.0147 17.2708Z" fill="#FEA248"/>
<path d="M29.8531 22.674H30.7796L32.6325 23.2529L33.2501 23.7353V24.4107L32.6325 24.9896H31.9119L30.2648 24.5072L29.6472 24.2177L29.3384 23.7353L29.7501 22.7704L29.8531 22.674Z" fill="#FEA248"/>
<path d="M39.7353 35.4098V35.6992L37.7794 39.3657L36.8529 41.0059L36.0294 42.5497L35.8235 42.7426L35.9264 42.2602L36.75 40.8129L37.3676 39.6551L37.4705 38.8832L37.6764 38.7868V37.9184L37.7794 37.6289L37.9853 37.5325L38.1911 37.1465L38.6029 36.9535L39.2205 36.0852L39.7353 35.4098Z" fill="#FEA44A"/>
<path d="M24.7058 20.9373L24.9117 21.3232V21.9986L24.6029 22.1916L23.8823 22.0951L23.9852 22.481L24.6029 22.867L24.4999 23.2529L24.2941 23.1564V22.867L23.7794 22.5775L23.1617 22.7705H21.9264L21.5146 22.288V21.9986L24.7058 21.9021V20.9373Z" fill="#FEA84F"/>
<path d="M22.3381 15.2446L23.6764 15.3411L25.0146 15.7271L26.3529 16.4024L27.5881 17.5603L28.4117 18.911L28.6176 19.5864V20.5513L28.3087 20.7443L28.4117 20.4548V19.7794L28.1029 18.8146L27.4852 17.8497L26.5587 16.8849L25.5293 16.2095L24.1911 15.7271L23.1617 15.5341H22.2352L21.1029 15.6306L19.8676 16.113H19.6617V16.306H19.147L19.6617 15.92L20.897 15.4376L22.3381 15.2446Z" fill="#FEA950"/>
<path d="M22.1325 10.8063H22.853L23.3677 11.0957L23.5736 11.7711V13.7008L23.3677 13.9903L23.2648 11.4817L22.956 11.0957H22.1325L21.9266 11.2887L21.8236 13.0254V13.8938L22.3383 14.2797L22.853 14.3762L22.4413 14.5692L21.8236 14.2797L21.5148 13.7973L21.4119 12.9289V11.7711L21.8236 10.9992L22.1325 10.8063Z" fill="#FEAA51"/>
<path d="M21.8235 4.24536H23.1617L26.3529 4.6313V4.72778H25.2206L24.2941 4.6313H21.6176L18.8382 4.82427L17.2941 5.21021L16.8823 5.11372L18.7353 4.6313L20.7941 4.34185L21.8235 4.24536Z" fill="#FEA248"/>
<path d="M28.2058 20.7443V21.0337L27.6911 21.8056L27.2793 22.288L26.7646 22.7704L26.147 23.6388L25.4264 24.3142L24.6029 25.3755L22.9558 27.3052L22.647 27.2087L23.6764 26.1474L25.0146 24.5072L25.9411 23.3494L27.0734 22.095L28.2058 20.7443Z" fill="#FFB760"/>
<path d="M20.0736 28.27H21.6177L21.5147 28.8489L21.103 29.2349H20.1765L19.8677 29.0419V28.3665L20.0736 28.27Z" fill="#FFD37F"/>
<path d="M18.2207 32.6118L18.3236 32.9013L17.6031 33.7696L17.2942 34.2521H17.0884L16.8825 34.638L16.4707 35.3134H16.2648L16.0589 35.7958L15.6472 36.4712L15.4413 36.8571L14.7207 36.7607L14.9266 36.6642L15.1325 36.2782L15.956 35.3134L16.9854 34.1556L17.8089 33.1907L18.2207 32.6118Z" fill="#FFB760"/>
<path d="M14.7204 18.0427L15.338 18.1392L15.6468 18.3322L15.5439 19.2005L15.338 19.49L14.6174 19.5865L14.3086 19.49V19.1041L14.6174 18.8146L14.7204 18.0427Z" fill="#FED27E"/>
<path d="M22.4413 20.4547H23.0589L23.6766 20.9371V21.2266H21.4119L21.5148 20.8407L22.0295 20.5512L22.4413 20.4547Z" fill="#FEC670"/>
<path d="M30.5736 43.3215L31.5 43.9004L33.0441 44.7688V44.5758L33.6618 44.4793L33.7647 44.9618H33.5589L33.9706 45.3477L34.2794 45.2512L35.3089 43.5145L35.4118 43.7075L34.4853 45.5407L34.0736 45.6372L31.1912 43.9969L30.6765 43.611L30.3677 43.418L30.5736 43.3215Z" fill="#FEA148"/>
<path d="M12.25 28.27L12.7647 28.7524L13.8971 29.9103L15.3382 30.9716L16.5735 31.7435L17.8088 32.3224L17.9118 32.5153L17.3971 32.3224L15.75 31.5505L14.8235 30.9716V30.7786L14.3088 30.5857L13.2794 29.7173L12.25 28.463V28.27Z" fill="#FEA84F"/>
<path d="M8.33813 32.033L9.05872 32.6119L9.77931 33.3837L10.6028 34.0591L11.5293 34.831L12.8675 35.6994L13.5881 36.0853V36.2783L13.0734 36.0853L11.8381 35.3134L10.4999 34.3486L8.64696 32.6119L8.33813 32.2259V32.033Z" fill="#FEA64D"/>
<path d="M15.8528 44.1901L16.4704 44.576L16.8822 45.0584L17.7057 45.7338V45.9268L18.1175 46.1198V46.3127L18.5293 46.5057V46.6987L18.941 46.8916V47.0846L19.3528 47.2776V47.4705L19.7645 47.6635V47.8565L20.1763 48.0495V48.2424L19.7645 48.0495L15.8528 44.383V44.1901Z" fill="#FEA248"/>
<path d="M12.6617 17.0779L13.3823 17.1744L15.544 18.0427L15.7499 18.2357V19.0076L15.544 19.3935L15.3381 19.297L15.544 18.9111L15.647 18.3322L15.1323 18.1392L13.5881 17.4638H12.9705L12.7646 17.5603V17.9462L12.147 17.8498V17.4638L12.6617 17.0779Z" fill="#FEA248"/>
<path d="M18.2206 14.3762L18.5294 14.4727L18.6323 15.0516L18.5294 15.534L17.5 15.6305L17.1912 15.3411L17.7059 15.0516L18.0147 14.7622L18.2206 14.3762Z" fill="#FED17D"/>
<path d="M6.69116 36.5676L7.20587 37.0501L7.61763 37.629L8.33822 38.2079L8.5441 38.5938L8.33822 38.6903L8.5441 39.1727L8.64704 39.5587L8.23528 39.1727L7.10293 37.3395L6.69116 36.7606V36.5676Z" fill="#FEAB53"/>
<path d="M16.3676 12.3501H17.0881L17.1911 12.5431H16.4705L16.5734 12.8325L16.3676 13.122H16.1617L16.0587 13.7009L16.1617 14.0868L15.8529 13.7974L15.647 13.4114L15.7499 12.8325L16.3676 12.3501Z" fill="#FEA248"/>
<path d="M30.1618 17.946H30.6765L30.5735 18.139H30.3676L30.1618 18.8144L29.75 19.0074L29.647 19.2003L29.4412 18.9109L29.5441 18.332L30.1618 17.946Z" fill="#FEB75F"/>
<path d="M21.7205 22.1914H23.1616L23.3675 22.4809L23.1616 22.7703H22.3381L21.8234 22.4809L21.7205 22.1914Z" fill="#FECE7A"/>
<path d="M21.6177 11.2888L21.7207 11.5783V13.7009L22.1325 14.1834L22.853 14.3763L22.4413 14.5693L21.8236 14.2798L21.5148 13.7974L21.4119 12.9291V11.7712L21.6177 11.2888Z" fill="#FEA34A"/>
<path d="M20.4853 28.077H21.8235V28.6559L21.7205 29.0419L21.4117 29.2348L21.1029 29.1384L21.5147 28.6559V28.3665L20.0735 28.27L20.4853 28.077Z" fill="#FFB760"/>
<path d="M23.4707 22.095H23.8825L23.9854 22.4809L24.603 22.8668L24.5001 23.2528L24.2942 23.1563V22.8668L23.7795 22.5774L23.1619 22.6739L23.2648 22.3844L23.1619 22.1915L23.4707 22.095Z" fill="#FEAC54"/>
<path d="M7.92643 38.015L8.33819 38.208L8.54407 38.5939L8.33819 38.6904L8.54407 39.1728L8.64702 39.5588L8.23525 39.1728L7.92643 38.6904L7.82349 38.1115L7.92643 38.015Z" fill="#FEB058"/>
<path d="M17.1912 26.2439H17.9118L18.3236 26.6298L17.3971 26.5334L16.7794 26.9193L16.3677 27.2087L16.5736 26.8228L17.1912 26.2439Z" fill="#FEA84F"/>
<path d="M21.7206 11.2888H21.8236L21.9265 11.9642L21.7206 13.7009H21.6177V11.5783L21.7206 11.2888Z" fill="#FFB760"/>
<path d="M22.4411 20.4547H23.0588L23.4705 20.8407L23.1617 20.7442H22.4411L21.8235 20.8407L21.7205 21.0336L21.5146 20.8407L22.0294 20.5512L22.4411 20.4547Z" fill="#FEA64D"/>
<path d="M14.7207 30.5857L16.2648 31.5505L15.956 31.647L14.8236 30.9716L14.7207 30.5857Z" fill="#FEA54C"/>
<path d="M20.0735 29.8138H20.4853V30.3928L20.2794 30.5857L20.0735 30.4892V29.8138Z" fill="#FEB55E"/>
<path d="M15.0293 17.8497L15.6469 18.1392L15.7499 18.2357V19.0075L15.544 19.3935L15.3381 19.297L15.544 18.9111L15.6469 18.3322L15.1322 18.1392L15.0293 17.8497Z" fill="#FEA54C"/>
<path d="M38.9117 36.3748V36.6642L38.397 37.2431L37.8823 37.3396L38.2941 36.8572L38.9117 36.3748Z" fill="#FFC974"/>
</svg>
