<svg width="42" height="50" viewBox="0 0 42 50" fill="none" xmlns="http://www.w3.org/2000/svg">
<g clip-path="url(#clip0_828_1686)">
<path d="M19.0537 0H22.8439L23.1512 0.0512295L23.9707 0.153689L25.0976 0.358607L26.6341 0.717213L27.6585 1.02459L29.0415 1.53689L30.0659 1.99795L31.039 2.51025L32.0122 3.07377L32.9341 3.68852L33.9073 4.40574L34.6244 5.02049L35.1878 5.48156L36.4683 6.76229L36.8268 7.17213L37.5439 8.04303L38.261 9.01639L38.978 10.1434L39.6439 11.3217L40.3098 12.7049L40.7707 13.8832L41.1805 15.1639L41.5902 16.8545L41.8463 18.4939L42 19.9283V22.0799L41.8463 23.5656L41.6415 24.9488L41.3341 26.3832L41.0268 27.459L40.5146 28.8934L39.9512 30.1742L39.2854 31.4549L38.5683 32.6332L37.9024 33.5553L37.4415 34.1701L36.878 34.8361L36.5707 35.3484L32.3195 43.8525L31.9098 44.7234L31.7049 45.082L31.4488 45.0307L30.6805 44.5184L29.7585 43.9549L28.1707 42.9303L27.9659 43.0328L27.6073 43.4426L21.1537 49.8975L21.1024 50L20.8463 49.9488L20.5902 49.6926L19.9756 49.0266L14.4439 43.4939L14.239 43.5963L13.522 44.1598L12.7537 44.8258L12.1902 45.2869L12.0366 45.4406L11.8317 45.3381L11.1146 44.1598L10.6537 43.4426L9.83415 42.1107L9.16829 41.0348L8.34878 39.7029L6.35122 36.4754L5.99268 35.9119L5.27561 35.1434L4.91707 34.7336L4.4561 34.1701L3.84146 33.3504L3.12439 32.2746L2.66341 31.5061L2.25366 30.7889L1.5878 29.3545L1.12683 28.1762L0.717073 26.8955L0.358537 25.4611L0.0512195 23.7193L0 23.2582V18.5451L0.153659 17.8279L0.409756 16.3422L0.870732 14.6516L1.38293 13.2172L1.99756 11.834L2.6122 10.6557L3.17561 9.73361L3.58537 9.11885L4.09756 8.40164L4.66098 7.68443L5.22439 7.01844L5.83902 6.35246L6.70976 5.48156L7.11951 5.12295L7.78537 4.55943L8.80976 3.79098L9.57805 3.27869L10.5 2.71516L11.422 2.20287L12.3951 1.7418L13.778 1.17828L15.2122 0.717213L16.9537 0.307377L18.5927 0.0512295L19.0537 0ZM19.9244 2.6127L18.7463 2.71516L17.3634 2.92008L15.878 3.27869L14.7 3.63729L13.4195 4.14959L12.3439 4.66189L11.422 5.17418L10.7049 5.63525L9.83415 6.25L9.11707 6.81352L8.55366 7.32582L8.1439 7.68443L7.22195 8.60656L6.86341 9.01639L6.40244 9.57992L5.89024 10.2459L5.27561 11.168L4.81463 11.9365L4.09756 13.3197L3.58537 14.5492L3.12439 15.9324L2.81707 17.1107L2.56098 18.6475L2.45854 19.5697L2.40732 20.6967V21.4652L2.45854 22.6434L2.71463 24.4877L3.02195 25.7684L3.43171 27.1516L3.9439 28.4324L4.55854 29.7131L5.17317 30.7889L5.83902 31.7623L6.50488 32.6332L7.06829 33.2992L7.83659 34.1189L8.24634 34.5287L8.6561 34.8873L9.32195 35.4508L9.9878 35.9631L11.0634 36.6803L12.0366 37.2439L12.9073 37.7049L14.239 38.2684L15.7756 38.7807L17.0049 39.0881L18.4902 39.3443L19.5146 39.4467H22.0756L23.7146 39.2418L25.2 38.9344L26.4805 38.5758L27.9659 38.0123L28.9902 37.5512L30.0146 36.9877L30.9878 36.3729L31.8585 35.7582L32.3707 35.3484L33.0366 34.7848L33.3951 34.4262L33.8049 34.0676L34.6244 33.1967L35.1878 32.5307L35.6488 31.916L36.161 31.1988L36.7756 30.1742L37.4927 28.791L38.0561 27.4078L38.5171 25.9734L38.8244 24.6414L39.0293 23.4631L39.1317 22.6434V19.4672L38.9268 17.9816L38.5683 16.291L38.0561 14.6516L37.5439 13.4221L37.1341 12.6025L36.6732 11.7316L36.161 10.9119L35.5463 10.041L34.9829 9.32377L34.3171 8.55533L32.9854 7.22336L32.422 6.76229L31.5 6.04508L30.8854 5.63525L30.0659 5.12295L28.8878 4.5082L27.8122 3.9959L26.4293 3.48361L25.0976 3.125L23.8683 2.86885L22.8439 2.71516L21.5122 2.6127H19.9244Z" fill="#FEFEFE"/>
<path d="M19.2585 4.20081H22.2804L24.0219 4.45695L25.3024 4.76433L26.4804 5.12294L27.6585 5.584L28.478 5.99384L29.656 6.65982L30.4243 7.17212L31.2951 7.8381L31.8585 8.29917L32.4731 8.86269L32.9853 9.42622L33.3438 10.1434L33.4975 10.8606L33.3951 11.6291L33.139 12.2951L32.7804 12.7561L32.3195 13.166L31.7048 13.4733L31.2951 13.5758H30.2707L29.6048 13.3197L29.1438 13.0123L28.3756 12.2951L27.8121 11.834L26.9926 11.2705L25.917 10.6557L24.8926 10.1947L23.5609 9.78482L22.7926 9.63113L22.0243 9.52867H19.5146L18.2341 9.73359L17.1585 10.041L16.1853 10.3996L15.3658 10.8094L14.3926 11.3729L13.778 11.834L13.2146 12.2951L12.7024 12.7561L12.139 13.3197L11.5756 14.0369L10.9609 14.9078L10.3463 16.0348L9.83409 17.3156L9.42434 18.8524L9.27068 20.0307V22.1311L9.37312 22.9508L9.73165 24.4877L10.0902 25.4611L10.4487 26.2807L11.0121 27.2541L11.6268 28.125L12.0878 28.6885L12.4463 29.0471L12.7024 29.3545L13.1121 29.7131L13.5731 30.1229L14.4438 30.7377L15.3146 31.25L16.4926 31.8135L17.9268 32.2746L18.8487 32.4795L20.2317 32.582H21.256L22.6902 32.4795L23.9707 32.1721L25.0463 31.8135L26.1731 31.3012L27.0438 30.7889L27.9658 30.1229L28.478 29.6619L28.7341 29.4057L28.9902 29.0983L29.5024 28.7397L29.9121 28.5348L30.5268 28.3811H31.1414L31.756 28.5348L32.3195 28.8422L32.8317 29.3033L33.1902 29.8156L33.4463 30.584L33.4975 30.9426L33.3951 31.7111L33.139 32.377L32.6268 33.043L31.8585 33.8115L31.1414 34.375L30.4756 34.8873L29.6048 35.4508L28.7341 35.9631L27.4536 36.5779L26.2756 37.0389L24.8414 37.4488L23.6121 37.7049L22.4853 37.8586L21.5634 37.9098H19.9756L19.0536 37.8586L17.3121 37.6024L15.7756 37.1926L14.4951 36.7315L13.4707 36.2705L12.6512 35.8606L11.7804 35.3483L10.9609 34.7848L10.2951 34.2725L9.73165 33.8115L8.91214 33.043L8.39995 32.5307L8.04141 32.1209L7.32434 31.25L6.60726 30.2254L5.89019 28.9959L5.27556 27.7152L4.76336 26.332L4.40482 25.1024L4.14873 23.8217L3.94385 22.2848V19.8258L4.09751 18.5963L4.3536 17.1619L4.81458 15.5738L5.37799 14.1393L5.83897 13.166L6.50482 12.0389L6.91458 11.4242L7.52921 10.6045L7.93897 10.0922L8.45117 9.52867L8.8097 9.11884L9.16824 8.76023L9.57799 8.40163L10.2951 7.78687L11.2682 7.06966L12.2414 6.4549L13.3682 5.84015L14.3926 5.37908L15.8268 4.86679L17.2609 4.50818L18.4902 4.30326L19.2585 4.20081Z" fill="#FEFEFE"/>
<path d="M20.2318 15.0103H21.3586L22.383 15.2152L23.2537 15.5225L23.9708 15.9324L24.6366 16.4447L25.2513 17.0594L25.7635 17.7766L26.1732 18.5963L26.4293 19.3648L26.6342 20.3894V21.2603L26.4805 22.1824L26.122 23.207L25.7123 23.9754L25.0976 24.7951L24.4318 25.666L23.8683 26.5369L23.561 26.998L23.5098 27.0492H18.2342L18.0293 26.793L17.5683 26.0246L17.0049 25.3074L16.4415 24.6414L15.9293 23.9242L15.4683 23.0533L15.2635 22.4898L15.0586 21.5164V20.082L15.2635 19.1086L15.622 18.2889L15.9805 17.623L16.4415 17.0082L16.8513 16.5471L17.5683 15.9836L18.4903 15.4713L19.4123 15.1639L20.2318 15.0103ZM19.7196 16.4447L19.0025 16.5984L18.183 16.957L17.722 17.2644L17.2098 17.6742L16.8001 18.1865L16.3903 18.9037L16.1342 19.8771L16.083 20.7992L16.1854 21.1578L16.4415 21.3115H16.8001L17.0049 21.209L17.1586 20.9016L17.2098 20.6455L17.261 19.8771L17.5171 19.1598L17.8757 18.5963L18.2342 18.2377L18.9513 17.8279L19.5147 17.623L20.283 17.4693L20.4879 17.3668L20.6415 17.1107L20.5903 16.8033L20.3854 16.4959L20.2318 16.4447H19.7196ZM20.4366 19.1086L19.8732 19.3135L19.3098 19.7234L18.9001 20.2869L18.6952 20.8504L18.644 21.4139L18.7464 21.9775L19.0025 22.4898L19.4635 23.0021L19.8732 23.2582L20.4366 23.4631H21.2562L21.8196 23.2582L22.3318 22.8996L22.5879 22.5922L22.1269 22.2336L21.922 22.1312H21.6659L21.2562 22.3873L21.0001 22.4385H20.5903L20.0781 22.1824L19.822 21.875L19.7708 21.7213L22.7927 21.6701L22.844 21.6189V20.8504L22.6391 20.2357L22.3318 19.7746L21.8708 19.3648L21.461 19.1598L21.2049 19.1086H20.4366Z" fill="#FEFEFE"/>
<path d="M18.3879 29.3032H23.4074L23.3562 29.8155L23.1001 30.3278L22.6903 30.6864L22.2294 30.8401H22.1269L22.0757 31.3524L21.8196 31.6086L21.6659 31.711H20.2318L19.822 31.5061L19.6684 31.3012L19.5659 30.8401L19.1562 30.6864L18.6952 30.3278L18.3879 29.7131L18.3367 29.3545L18.3879 29.3032Z" fill="#FEFEFE"/>
<path d="M18.7462 27.5615H21.8194L23.2535 27.6128L23.5096 27.7664L23.6633 28.0738V28.4324L23.5096 28.791L23.2535 28.9447H19.0023L18.4901 28.8423L18.234 28.6373L18.1316 28.2275L18.2853 27.8177L18.5926 27.6128L18.7462 27.5615Z" fill="#FEFEFE"/>
<path d="M20.5903 10.5532L21.1025 10.6045L21.461 10.8094L21.6659 11.168L21.7171 11.3217L21.7684 13.2684L21.6659 13.7295L21.3074 14.1393L20.8976 14.293L20.4879 14.2417L20.1806 14.0368L19.9245 13.7295L19.822 13.4733V11.3217L20.0269 10.9118L20.4367 10.6045L20.5903 10.5532Z" fill="#FEFEFE"/>
<path d="M25.9684 12.295H26.5318L26.9415 12.5512L27.1464 12.8073L27.1976 12.9098V13.5246L26.583 14.5491L26.2245 15.0614L25.9172 15.4713L25.5586 15.6762L25.4562 15.7274L24.944 15.6762L24.5342 15.3688L24.3293 14.9077L24.3806 14.4467L24.7903 13.7295L25.3025 12.961L25.6098 12.5512L25.9684 12.295Z" fill="#FEFEFE"/>
<path d="M15.2121 12.0902L15.7243 12.1414L16.1341 12.3976L16.7999 13.4222L17.2097 14.0882L17.3121 14.3443V14.8054L17.1073 15.2152L16.8512 15.4201L16.5951 15.5226H16.2365L15.7756 15.3177L15.3658 14.7541L14.6999 13.7296L14.4438 13.166L14.4951 12.705L14.8024 12.2951L15.2121 12.0902Z" fill="#FEFEFE"/>
<path d="M27.8121 22.2336H28.2218L30.0658 22.7972L30.3731 23.0021L30.6292 23.2582L30.7316 23.5144V23.873L30.5267 24.2828L30.2194 24.5902L29.7584 24.6927L28.9901 24.4877L27.6584 24.0779L27.2487 23.7193L27.1462 23.5144V22.7972L27.3511 22.4898L27.8121 22.2336Z" fill="#FEFEFE"/>
<path d="M29.6048 16.9569L30.0658 17.0081L30.4755 17.3155L30.6292 17.5204L30.6804 17.6741V18.1864L30.5267 18.4938L30.1682 18.8012L28.6316 19.4159L28.2218 19.5184H27.8121L27.4023 19.3135L27.1975 19.0061L27.1462 18.8524V18.2889L27.3511 17.9815L27.6584 17.7254L29.6048 16.9569Z" fill="#FEFEFE"/>
<path d="M15.9294 25.8708H16.4928L16.8001 26.0245L17.1074 26.3831L17.2098 26.6393L17.1586 27.1004L16.8001 27.6127L16.4415 27.9713L16.0318 28.4836H15.9294L15.8269 28.6885L15.4172 28.9958L15.1611 29.0983L14.7001 29.0471L14.2903 28.7909L14.1367 28.5348L14.0854 28.3299V27.92L14.2903 27.5102L14.5464 27.2028H14.6489L14.7513 26.9979L15.1611 26.5881L15.5196 26.1782L15.9294 25.8708Z" fill="#FEFEFE"/>
<path d="M25.0975 26.0758H25.7122L26.0195 26.2295L26.6853 26.8955L27.0439 27.3053L27.5049 27.8688L27.6073 28.0738V28.5861L27.3 29.0471L26.9414 29.252H26.378L25.9171 28.9447L25.3024 28.2787L24.9439 27.8688L24.5853 27.4078L24.4829 27.1516L24.5341 26.6906L24.8414 26.2295L25.0975 26.0758Z" fill="#FEFEFE"/>
<path d="M13.317 22.08H13.9317L14.3414 22.3361L14.5463 22.6947L14.5975 23.1045L14.4439 23.4632L14.1365 23.8218L13.0609 24.1804L12.0365 24.4877L11.5756 24.4365L11.2683 24.2316L11.0634 23.9754L10.9609 23.7193V23.3095L11.1146 23.0021L11.3195 22.7459L11.8317 22.541L13.317 22.08Z" fill="#FEFEFE"/>
<path d="M11.7292 16.8032L12.2414 16.8545L13.0609 17.1618L14.0853 17.5717L14.3414 17.7766L14.5463 18.1864V18.6475L14.2902 19.0573L14.0853 19.2622L13.5731 19.3647L13.1634 19.2622L11.5756 18.6475L11.2683 18.4426L11.0122 18.0327L10.9609 17.6229L11.217 17.1106L11.5756 16.8545L11.7292 16.8032Z" fill="#FEFEFE"/>
<path d="M20.6415 20.0819H21L21.461 20.2356L21.7171 20.4405L21.922 20.7991V20.9528L21.4098 21.004H19.8732L19.7708 20.9528L19.822 20.5942L20.2317 20.2356L20.6415 20.0819Z" fill="#FEFEFE"/>
</g>
<defs>
<clipPath id="clip0_828_1686">
<rect width="42" height="50" fill="white"/>
</clipPath>
</defs>
</svg>
